<svg xmlns="http://www.w3.org/2000/svg" width="25" height="22" viewBox="0 0 25 32"><path fill="#fff" d="M24.88 21.7q-.7 2.23-2.2 4.46-2.3 3.5-4.6 3.5-.87 0-2.5-.57-1.53-.58-2.7-.58-1.08 0-2.52.6-1.45.6-2.36.6-2.7 0-5.37-4.63Q0 20.42 0 16.1q0-4.06 2.02-6.67 2-2.57 5.07-2.57 1.28 0 3.15.53 1.86.53 2.46.53.82 0 2.57-.6 1.82-.62 3.1-.62 2.1 0 3.8 1.18.92.64 1.85 1.78-1.4 1.2-2.04 2.1-1.16 1.7-1.16 3.7 0 2.22 1.23 4t2.82 2.24zM18.16.75q0 1.1-.52 2.43-.53 1.34-1.66 2.46-.96.97-1.93 1.3-.66.18-1.85.3.05-2.67 1.4-4.6Q14.9.74 18.04 0q.02.06.05.2t.04.2q0 .06 0 .17t.02.18z"/></svg>