<svg xmlns="http://www.w3.org/2000/svg" width="45" height="38"><title>Logo Medium</title><desc>Created with Sketch.</desc><g fill="none"><g><g><g><path fill="#CCCDC9" d="M31.36.4c-.68-.33-1.23 0-1.23.76v29.92l12.28 6.14c1.36.68 2.46.2 2.46-1.05V7.35c0-.12-.07-.23-.18-.28L31.36.4"/><path fill="#9EA1A0" d="M15.4 23.72L29.43.96c.4-.64 1.26-.9 1.94-.56L44.7 7.07c.08.05.12.16.07.24L30.13 31.1 15.4 23.72"/><path fill="#797B79" d="M2.72.8c-1.12-.55-1.5-.13-.84.93l13.53 22 14.73 7.35L15.43 7.2c0-.03-.04-.05-.07-.07L2.72.8"/><path fill="#515251" d="M15.4 36.17c0 1.25-.9 1.82-2.03 1.26L1.9 31.7c-.66-.34-1.2-1.23-1.2-2V1.63c0-1 .72-1.46 1.62-1l13 6.5c.06.02.1.07.1.12v28.93"/></g></g></g></g></svg>