<svg xmlns="http://www.w3.org/2000/svg" width="50" height="34"><title>Logo Github</title><desc>Created with Sketch.</desc><g fill="none"><g fill="#fff"><g><g><path d="M36.15.06c.63 1.3 1.04 3.44.43 5 2.5 1.92 3.38 6.58 2.16 10.4 3.6.23 7.86-.13 10.6.85-2.56-.28-6.08-.86-9.4-.66-.63.04-1.57-.02-1.52.77 3.84.28 7.67.57 10.82 1.45-3.13-.46-6.93-1.15-10.82-1.25-1.6 2.83-4.84 4.23-9.3 4.52.47.93 1.4 1.3 1.6 2.8.35 2.23-.5 5.5.34 7 .4.72 1.07.74 1.5 1.35-1.08 1.16-3.8-.13-4.1-1.34-.53-2.1.8-5.32-.65-6.73.1 2.27-.6 5.46.12 7.5.28.8 1.1 1.1.87 1.82-5.1.46-2.97-5.87-3.8-9.6-.77.04-.43 1-.44 1.43C24.54 29 25.4 34 21 33.52c-.14-.77.58-1.03.86-1.73.8-2.06-.15-5.12.2-7.6-1.67 1.13.2 5.08-.85 7.1-.6 1.18-2.53 1.68-4 1.16.2-.86 1.2-.72 1.63-1.53.6-1.13 0-2.76.2-4.43-3.1.56-5.52-.08-6.7-1.82-.53-.8-.66-1.7-1.3-2.4s-1.65-.8-1.95-1.74c3.86-.83 4 3.55 7.47 3.66 1.06.03 1.62-.28 2.6-.48.28-1.1.86-1.93 1.73-2.5-4.3-.53-7.87-1.73-9.52-4.62-3.92.17-7.5.64-10.83 1.35 3.02-.98 6.73-1.33 10.72-1.45-.24-1.26-2.3-.9-3.57-.86-2.38.1-5.37.36-7.26.67 2.74-.86 6.58-.75 10.3-.76-1.15-3.17-.75-8.2 1.72-10.1-.7-1.57-.48-4.15.43-5.38 2.76.1 4.44 1.2 6.17 2.22 2.15-.55 4.42-.82 7.36-.68 1.24.06 2.53.56 3.47.48.9-.07 1.92-1 2.8-1.34C33.85.28 34.83.1 36.16.06z"/></g></g></g></g></svg>