<?xml version="1.0" encoding="UTF-8" standalone="no"?>
<svg width="52px" height="29px" viewBox="0 0 52 29" version="1.1" xmlns="http://www.w3.org/2000/svg" xmlns:xlink="http://www.w3.org/1999/xlink" xmlns:sketch="http://www.bohemiancoding.com/sketch/ns">
    <!-- Generator: Sketch 3.3.3 (12081) - http://www.bohemiancoding.com/sketch -->
    <title>Logo Behance</title>
    <desc>Created with Sketch.</desc>
    <defs></defs>
    <g id="Page-1" stroke="none" stroke-width="1" fill="none" fill-rule="evenodd" sketch:type="MSPage">
        <g id="Desktop-HD" sketch:type="MSArtboardGroup" transform="translate(-349.000000, -897.000000)" fill="#FFFFFF">
            <g id="Footer" sketch:type="MSLayerGroup" transform="translate(58.000000, 887.000000)">
                <g id="Logo-Behance" transform="translate(291.530271, 10.409192)" sketch:type="MSShapeGroup">
                    <path d="M46.3946136,4.03901813 L33.5216182,4.03901813 L33.5216182,1.18392923 L46.3951845,1.18392923 L46.3951845,4.03901813 L46.3946136,4.03901813 Z M24.9525596,15.7458 C25.7830939,16.8940534 26.1980756,18.2889799 26.1980756,19.9259926 C26.1980756,21.6195772 25.7300082,23.1383499 24.7778906,24.4802723 C24.172257,25.3686014 23.4204951,26.1183043 22.5168966,26.7217362 C21.4991354,27.4204736 20.2941472,27.8990399 18.9093527,28.1548869 C17.5199916,28.4112435 16.0158969,28.5406959 14.395927,28.5406959 L0,28.5406959 L0,0 L15.4376624,0 C19.3289009,0.0565717365 22.0876446,1.06314092 23.7167475,3.04009377 C24.6939809,4.25256369 25.1786019,5.70711987 25.1786019,7.3981561 C25.1786019,9.1432158 24.6882728,10.5391616 23.7013355,11.6002639 C23.1522125,12.1950316 22.3410859,12.7357759 21.267385,13.2240257 C22.8936338,13.7555961 24.1277335,14.5929598 24.9525596,15.7458 L24.9525596,15.7458 Z M7.37206175,11.2521694 L14.1362067,11.2521694 C15.5261386,11.2521694 16.6500712,11.016199 17.5154251,10.5447678 C18.3802082,10.0738463 18.8117435,9.23699237 18.8117435,8.03522521 C18.8117435,6.70757319 18.2403588,5.82637921 17.0947352,5.40234601 C16.1100812,5.10776526 14.8502949,4.95588798 13.3216552,4.95588798 L7.37206175,4.95588798 L7.37206175,11.2521694 L7.37206175,11.2521694 Z M19.4630422,19.5187781 C19.4630422,18.0356812 18.7843444,17.0112741 17.429803,16.461356 C16.6723329,16.1484277 15.6037693,15.9889056 14.2332451,15.9776932 L7.37206175,15.9776932 L7.37206175,23.583279 L14.1270737,23.583279 C15.5147223,23.583279 16.5889941,23.4212086 17.3641594,23.0827975 C18.7620827,22.4605084 19.4630422,21.2765791 19.4630422,19.5187781 L19.4630422,19.5187781 Z M51.1700429,14.8758184 C51.3258751,15.8095069 51.3960852,17.1641707 51.3675445,18.9347131 L34.6963532,18.9347131 C34.7888251,20.9896432 35.5828272,22.4263615 37.089776,23.2484354 C37.9979409,23.7642066 39.0996118,24.0159763 40.3896512,24.0159763 C41.74933,24.0159763 42.8584214,23.7086542 43.7117882,23.0777009 C44.1770016,22.7433671 44.5874168,22.2709166 44.9418922,21.6756392 L51.0518844,21.6756392 C50.8920565,22.8886188 50.1562774,24.1194363 48.8342723,25.37064 C46.7856212,27.357786 43.9121439,28.3551814 40.2229736,28.3551814 C37.1748272,28.3551814 34.4885769,27.5142502 32.1568021,25.8390133 C29.8324478,24.1581701 28.6657042,21.4315144 28.6657042,17.6493625 C28.6657042,14.1026714 29.7137185,11.3882473 31.816597,9.49844553 C33.9263252,7.60558581 36.6502492,6.66323318 40.0077767,6.66323318 C41.997634,6.66323318 43.7917022,6.98074843 45.3916936,7.6193465 C46.9876893,8.25845422 48.3056986,9.26451376 49.34458,10.6466989 C50.2841397,11.8642654 50.8886316,13.2719333 51.1700429,14.8758184 L51.1700429,14.8758184 Z M45.1559474,15.4084082 C45.0434971,13.9874893 44.5120693,12.9121166 43.555956,12.1771937 C42.6066925,11.4402322 41.4216828,11.0702224 40.0077767,11.0702224 C38.4682916,11.0702224 37.2804278,11.4657149 36.4356232,12.2429392 C35.5856813,13.0186346 35.0565368,14.0731114 34.8396275,15.4084082 L45.1559474,15.4084082 L45.1559474,15.4084082 Z" id="Behance"></path>
                </g>
            </g>
        </g>
    </g>
</svg>