<?xml version="1.0" encoding="UTF-8" standalone="no"?>
<svg width="39px" height="34px" viewBox="0 0 39 34" version="1.1" xmlns="http://www.w3.org/2000/svg" xmlns:xlink="http://www.w3.org/1999/xlink" xmlns:sketch="http://www.bohemiancoding.com/sketch/ns">
    <!-- Generator: Sketch 3.3.3 (12081) - http://www.bohemiancoding.com/sketch -->
    <title>Logo Dribbble</title>
    <desc>Created with Sketch.</desc>
    <defs></defs>
    <g id="Page-1" stroke="none" stroke-width="1" fill="none" fill-rule="evenodd" sketch:type="MSPage">
        <g id="Desktop-HD" sketch:type="MSArtboardGroup" transform="translate(-423.000000, -894.000000)" fill="#FFFFFF">
            <g id="Footer" sketch:type="MSLayerGroup" transform="translate(58.000000, 887.000000)">
                <g id="Logo-Dribbble" transform="translate(365.298014, 7.011491)" sketch:type="MSShapeGroup">
                    <path d="M19.026285,0 C8.51781214,0.000755044865 0,7.60632197 0,16.9892645 C0,26.370697 8.51781214,33.9770189 19.026285,33.9770189 C29.5347578,33.9770189 38.0529927,26.370697 38.0542612,16.9892645 C38.0529927,7.60632197 29.5347578,0.000755044865 19.026285,0 L19.026285,0 Z M30.6848421,8.8083534 C32.5410444,10.913041 33.7033907,13.5194558 33.850111,16.3655975 C31.7017365,15.9586283 29.6725988,15.760429 27.7804563,15.760429 L27.7804563,15.7600515 L27.7665031,15.7600515 C26.243487,15.7600515 24.8134924,15.8835013 23.4663716,16.0968015 C23.1386821,15.3802639 22.8071872,14.6920405 22.4727325,14.0328863 C25.4730996,12.857659 28.3529616,11.1844796 30.6848421,8.8083534 L30.6848421,8.8083534 Z M19.026285,3.73482943 C22.5281226,3.73482943 25.7399023,4.82775687 28.2827726,6.64741499 C26.3369314,8.7275636 23.7682687,10.2342556 20.9932674,11.2981138 C19.0436208,7.93174631 17.159512,5.52353071 15.8715867,4.05119323 C16.8910181,3.84921872 17.9434298,3.73482943 19.026285,3.73482943 L19.026285,3.73482943 Z M12.4695358,5.11656153 C13.4999606,6.20307109 15.5629244,8.59316561 17.7662661,12.3249749 C13.2851654,13.5160581 8.77277569,13.7958023 6.04259386,13.7950472 C5.96479403,13.7950472 5.88783986,13.7950472 5.81215416,13.7942922 L5.80961721,13.7942922 C5.3500063,13.7942922 4.95466481,13.7878743 4.62443839,13.7788137 C5.68953488,9.97338763 8.60956519,6.82183036 12.4695358,5.11656153 L12.4695358,5.11656153 Z M4.18174048,16.9892645 C4.18174048,16.9269733 4.18427743,16.8635495 4.18850568,16.7982382 C4.61217646,16.8122065 5.15592957,16.8242872 5.81004004,16.8242872 L5.81384546,16.8242872 C8.79772237,16.8069212 14.0077736,16.5841829 19.2875909,15.0959895 C19.5755348,15.6577429 19.8600961,16.2429027 20.1421205,16.8503363 C16.6161817,17.9032463 13.8390663,19.5805785 11.7849819,21.2511153 C9.80785159,22.8593608 8.4717242,24.4517504 7.69118902,25.5152311 C5.50687442,23.2063039 4.18300896,20.2389776 4.18174048,16.9892645 L4.18174048,16.9892645 Z M19.026285,30.2436996 C15.7227523,30.2436996 12.6779885,29.2681816 10.2078442,27.6312444 C10.732993,26.859211 11.8585534,25.3774354 13.6509091,23.8458269 C15.4952723,22.2677832 18.0411024,20.6436817 21.3649307,19.6768467 C22.4947195,22.5044897 23.5171106,25.7372143 24.2959545,29.3757755 C22.655393,29.9337537 20.8824873,30.2436996 19.026285,30.2436996 L19.026285,30.2436996 Z M27.4278202,27.8902248 C26.6747686,24.5993617 25.7276404,21.6320354 24.6879134,18.9837155 C25.6523775,18.8602657 26.6646208,18.790424 27.7326771,18.790424 L27.7707314,18.790424 L27.7732683,18.790424 L27.7758053,18.790424 C29.5465969,18.790424 31.4920153,18.9871132 33.6019127,19.4152237 C32.8716937,22.9197644 30.598163,25.9380563 27.4278202,27.8902248 L27.4278202,27.8902248 Z" id="Dribbble"></path>
                </g>
            </g>
        </g>
    </g>
</svg>