<svg xmlns="http://www.w3.org/2000/svg" width="41" height="35"><title>Logo Linkedin</title><desc>Created with Sketch.</desc><g fill="none"><g fill="#fff"><g><g><path d="M40.57 21.8v13.15h-8.53V22.68c0-3.08-1.24-5.18-4.33-5.18-2.35 0-3.75 1.42-4.37 2.8-.22.48-.28 1.16-.28 1.85v12.8H14.5s.13-20.77 0-22.93h8.55v3.25c-.02.03-.04.05-.06.08h.05v-.08c1.13-1.56 3.16-3.78 7.7-3.78 5.6 0 9.82 3.26 9.82 10.3zM5.57.97C2.68.97.76 2.67.76 4.93c0 2.2 1.85 3.97 4.72 3.97h.05c2.98 0 4.83-1.77 4.83-3.97C10.3 2.68 8.5.97 5.58.97zm-4.3 33.98h8.52V12.02H1.25v22.93z"/></g></g></g></g></svg>