<?xml version="1.0" encoding="UTF-8" standalone="no"?>
<svg width="41px" height="35px" viewBox="0 0 41 35" version="1.1" xmlns="http://www.w3.org/2000/svg" xmlns:xlink="http://www.w3.org/1999/xlink" xmlns:sketch="http://www.bohemiancoding.com/sketch/ns">
    <!-- Generator: Sketch 3.3.3 (12081) - http://www.bohemiancoding.com/sketch -->
    <title>Logo Linkedin</title>
    <desc>Created with Sketch.</desc>
    <defs></defs>
    <g id="Page-1" stroke="none" stroke-width="1" fill="none" fill-rule="evenodd" sketch:type="MSPage">
        <g id="Desktop-HD" sketch:type="MSArtboardGroup" transform="translate(-278.000000, -891.000000)" fill="#FFFFFF">
            <g id="Footer" sketch:type="MSLayerGroup" transform="translate(58.000000, 887.000000)">
                <g id="Logo-Linkedin" transform="translate(220.749346, 4.972869)" sketch:type="MSShapeGroup">
                    <path d="M39.8242269,20.8314683 L39.8242269,33.9770189 L31.2885676,33.9770189 L31.2885676,21.7117102 C31.2885676,18.6304687 30.0540165,16.5278443 26.964099,16.5278443 C24.6056198,16.5278443 23.2020371,17.9450021 22.5847615,19.3155402 C22.3595334,19.8058365 22.301567,20.4877473 22.301567,21.1740041 L22.301567,33.9770189 L13.7632528,33.9770189 C13.7632528,33.9770189 13.8783006,13.2036276 13.7632528,11.051223 L22.3011245,11.051223 L22.3011245,14.3007692 C22.2838674,14.3252643 22.2613003,14.3513397 22.2449281,14.3750446 L22.3011245,14.3750446 L22.3011245,14.3007692 C23.43523,12.740987 25.4609557,10.5127267 29.9951652,10.5127267 C35.6130361,10.5127267 39.8242269,13.7895336 39.8242269,20.8314683 L39.8242269,20.8314683 Z M4.8315637,0 C1.91067791,0 0,1.7107034 0,3.96029811 C0,6.16090271 1.85536648,7.9233618 4.7182859,7.9233618 L4.77536729,7.9233618 C7.75289199,7.9233618 9.60471853,6.1612978 9.60471853,3.96029811 C9.54852213,1.7107034 7.75289199,0 4.8315637,0 L4.8315637,0 Z M0.507095155,33.9770189 L9.04231195,33.9770189 L9.04231195,11.051223 L0.507095155,11.051223 L0.507095155,33.9770189 L0.507095155,33.9770189 Z" id="LinkedIn"></path>
                </g>
            </g>
        </g>
    </g>
</svg>