<svg xmlns="http://www.w3.org/2000/svg" width="39" height="34"><title>Logo Dribbble</title><desc>Created with Sketch.</desc><g fill="none"><g fill="#fff"><g><g><path d="M19.32 0C8.82 0 .3 7.63.3 17c0 9.38 8.52 17 19.02 17s19.03-7.62 19.03-17c0-9.38-8.52-17-19.03-17zm11.66 8.82c1.86 2.1 3.02 4.7 3.17 7.56-2.15-.4-4.18-.6-6.07-.6h-.02c-1.52 0-2.95.1-4.3.33-.32-.7-.65-1.4-1-2.06 3-1.17 5.9-2.84 8.22-5.22zM19.32 3.75c3.5 0 6.72 1.1 9.26 2.9-1.95 2.1-4.5 3.6-7.3 4.66-1.94-3.36-3.82-5.77-5.1-7.24 1-.2 2.06-.3 3.14-.3zm-6.55 1.38c1.03 1.08 3.1 3.47 5.3 7.2-4.5 1.2-9 1.48-11.73 1.48-.08 0-.15 0-.23 0-.45 0-.85 0-1.18 0 1.07-3.82 4-6.97 7.85-8.67zM4.47 17c0-.06 0-.13.02-.2.4.02.95.04 1.6.04 3-.02 8.2-.24 13.5-1.73.27.57.56 1.15.84 1.76-3.53 1.05-6.3 2.73-8.36 4.4-1.97 1.6-3.3 3.2-4.1 4.27-2.18-2.3-3.5-5.28-3.5-8.53zm14.85 13.25c-3.3 0-6.34-.97-8.8-2.6.5-.78 1.64-2.26 3.43-3.8 1.84-1.57 4.4-3.2 7.7-4.16 1.14 2.82 2.17 6.05 2.94 9.7-1.65.54-3.42.85-5.28.85zm8.4-2.35c-.75-3.3-1.7-6.26-2.73-8.9.95-.13 1.96-.2 3.03-.2h.04c1.77 0 3.72.2 5.83.63-.73 3.5-3 6.52-6.17 8.47z"/></g></g></g></g></svg>