<?xml version="1.0" encoding="UTF-8" standalone="no"?>
<svg width="45px" height="38px" viewBox="0 0 45 38" version="1.1" xmlns="http://www.w3.org/2000/svg" xmlns:xlink="http://www.w3.org/1999/xlink" xmlns:sketch="http://www.bohemiancoding.com/sketch/ns">
    <!-- Generator: Sketch 3.3.3 (12081) - http://www.bohemiancoding.com/sketch -->
    <title>Logo Medium</title>
    <desc>Created with Sketch.</desc>
    <defs></defs>
    <g id="Page-1" stroke="none" stroke-width="1" fill="none" fill-rule="evenodd" sketch:type="MSPage">
        <g id="Desktop-HD" sketch:type="MSArtboardGroup" transform="translate(-552.000000, -894.000000)">
            <g id="Footer" sketch:type="MSLayerGroup" transform="translate(58.000000, 887.000000)">
                <g id="Logo-Medium" transform="translate(494.423747, 7.011491)" sketch:type="MSShapeGroup">
                    <path d="M30.9336212,0.39339212 C30.2608025,0.0569827642 29.7103912,0.397190971 29.7103912,1.14936346 L29.7103912,31.071224 L41.9886995,37.2105892 C43.3398242,37.8859405 44.4351595,37.4131946 44.4351595,36.1545087 L44.4351595,7.34064631 C44.4351595,7.22034937 44.3667802,7.10976059 44.2591461,7.05573249 L30.9336212,0.39339212" id="Fill-1" fill="#CCCDC9"></path>
                    <path d="M14.9860449,23.7090509 L28.9936746,0.94633598 C29.3879109,0.305596454 30.2608025,0.0569827642 30.9336212,0.39339212 L44.2743415,7.06375229 C44.3608709,7.10680593 44.3916838,7.21486214 44.3410324,7.29717057 L29.7103912,31.071224 L14.9860449,23.7090509" id="Fill-2" fill="#9EA1A0"></path>
                    <path d="M2.2999932,0.801135455 C1.17848798,0.240171799 0.799024983,0.655090741 1.4558041,1.72298995 L14.9860449,23.7090509 L29.7103912,31.071224 L15.017702,7.19544579 C14.9970194,7.16167822 14.9670506,7.13466417 14.9315947,7.1169362 L2.2999932,0.801135455" id="Fill-3" fill="#797B79"></path>
                    <path d="M14.9860449,36.1545087 C14.9860449,37.4081295 14.0684113,37.9750024 12.9473282,37.4144609 L1.48450653,31.682839 C0.811687819,31.3464296 0.261276526,30.4558101 0.261276526,29.7036377 L0.261276526,1.60522557 C0.261276526,0.602328922 0.995298948,0.148577281 1.89224987,0.597263788 L14.9066911,7.10427337 C14.955232,7.12875485 14.9860449,7.17813991 14.9860449,7.23259011 L14.9860449,36.1545087" id="Fill-4" fill="#515251"></path>
                </g>
            </g>
        </g>
    </g>
</svg>