<svg xmlns="http://www.w3.org/2000/svg" width="52" height="29"><title>Logo Behance</title><desc>Created with Sketch.</desc><g fill="none"><g fill="#fff"><g><g><path d="M46.92 4.45H34.05V1.6h12.88v2.85zm-21.44 11.7c.83 1.15 1.25 2.55 1.25 4.18 0 1.7-.47 3.22-1.42 4.56-.6.88-1.35 1.63-2.25 2.23-1.02.7-2.23 1.18-3.6 1.43-1.4.26-2.9.4-4.52.4H.53V.4h15.44c3.9.07 6.65 1.07 8.28 3.05.97 1.2 1.46 2.67 1.46 4.36 0 1.75-.48 3.15-1.47 4.2-.55.6-1.36 1.14-2.43 1.63 1.62.53 2.86 1.37 3.68 2.52zM7.9 11.65h6.77c1.4 0 2.5-.22 3.38-.7.86-.47 1.3-1.3 1.3-2.5 0-1.33-.58-2.2-1.73-2.64-.98-.28-2.24-.44-3.77-.44H7.9v6.3zM20 19.94c0-1.5-.7-2.5-2.04-3.06-.76-.3-1.83-.47-3.2-.48H7.9V24h6.76c1.38 0 2.46-.17 3.23-.5 1.4-.63 2.1-1.8 2.1-3.57zm31.7-4.65c.16.94.23 2.3.2 4.06H35.23c.1 2.06.88 3.5 2.4 4.32.9.5 2 .76 3.3.76 1.35 0 2.46-.3 3.3-.93.48-.35.9-.82 1.24-1.42h6.1c-.15 1.22-.88 2.45-2.2 3.7-2.05 2-4.93 2.98-8.62 2.98-3.05 0-5.73-.84-8.06-2.5-2.34-1.7-3.5-4.42-3.5-8.2 0-3.55 1.04-6.26 3.15-8.15 2.1-1.9 4.83-2.83 8.2-2.83 1.98 0 3.77.32 5.37.96 1.6.64 2.92 1.64 3.95 3.03.94 1.2 1.55 2.62 1.83 4.22zm-6 .54c-.13-1.42-.66-2.5-1.6-3.23-.96-.75-2.15-1.12-3.56-1.12-1.54 0-2.73.4-3.57 1.17-.85.78-1.38 1.83-1.6 3.17H45.7z"/></g></g></g></g></svg>