<svg xmlns="http://www.w3.org/2000/svg" width="67" height="67"><title>logo cf</title><desc>Created with Sketch.</desc><g fill="none"><g><g transform="translate(-79 -149) translate(80.1 150.2)"><circle cx="32.438" cy="32.438" r="32.438" stroke="#fff"/><path fill="#fff" d="M26.6 27.3c-.88.06-1.6.5-2.2 1.33-.58.84-.87 2.1-.87 3.75v9.06c0 .93.08 1.7.26 2.3.17.6.42 1.07.73 1.43.3.35.68.6 1.1.73.43.14.87.2 1.34.2.57 0 1.12-.07 1.64-.24.53-.16 1-.43 1.4-.82.4-.38.74-.9.98-1.57.25-.67.37-1.5.37-2.48h.9v.52c0 .76-.1 1.48-.3 2.15-.2.67-.54 1.26-1 1.76-.44.5-1.02.9-1.73 1.2-.7.28-1.58.42-2.62.42-.66 0-1.33-.13-2-.4-.7-.25-1.3-.62-1.85-1.1-.55-.47-1-1.05-1.35-1.74-.36-.67-.54-1.43-.54-2.28v-9.18c0-.93.18-1.76.54-2.5.35-.74.8-1.36 1.35-1.88.54-.52 1.16-.92 1.84-1.2.67-.26 1.34-.4 2-.4.33 0 .64 0 .94.04.3.03.6.1.9.25.03.02.07.04.13.04l.32.1c.3.06.6.2.94.4.32.2.6.3.86.3.32 0 .5-.27.5-.8h1.05v6.9h-.9c0-.34 0-.75-.04-1.2-.02-.45-.08-.9-.17-1.35-.1-.45-.25-.9-.45-1.33-.2-.44-.48-.83-.8-1.2-.5-.48-1.03-.8-1.6-.97-.57-.17-1.13-.25-1.68-.25zm18.2-6.47s-.02 0-.05.04c.03.03.04.08.04.16 0 .5-.2.92-.56 1.27-.37.36-.8.54-1.3.54-.48 0-.9-.18-1.24-.54-.34-.35-.5-.78-.5-1.27 0-.8.33-1.34 1-1.64.45-.22.54-.5.3-.87 0-.02-.02-.04-.04-.04-.03-.12-.1-.2-.25-.25-.26-.22-.6-.33-.97-.33-.44 0-.78.18-1.03.53-.24.36-.4.8-.5 1.37-.1.56-.16 1.2-.17 1.95-.02.74-.02 1.48-.02 2.2v2.81h3.45v1.1H39.5v16.6c0 .4.06.7.17.86.1.16.23.26.37.3.13.07.3.07.53 0v1.05H35.6v-1.06c.23.08.4.08.55 0 .1-.03.22-.13.34-.3.12-.15.18-.44.18-.85v-16.6h-2.83v-1.1h2.83c0-.16 0-.5.02-1.02 0-.52.02-1 .02-1.46 0-.46 0-.86.02-1.22 0-.35.02-.53.02-.53 0-.8.1-1.53.3-2.2.18-.7.47-1.3.85-1.8.4-.5.86-.9 1.42-1.18.56-.3 1.2-.43 1.9-.43.4 0 .8.1 1.24.28.43.2.82.46 1.14.8.33.34.6.75.84 1.2.23.47.35 1 .35 1.6z"/></g></g></g></svg>