<?xml version="1.0" encoding="UTF-8" standalone="no"?>
<svg width="50px" height="34px" viewBox="0 0 50 34" version="1.1" xmlns="http://www.w3.org/2000/svg" xmlns:xlink="http://www.w3.org/1999/xlink" xmlns:sketch="http://www.bohemiancoding.com/sketch/ns">
    <!-- Generator: Sketch 3.3.3 (12081) - http://www.bohemiancoding.com/sketch -->
    <title>Logo Github</title>
    <desc>Created with Sketch.</desc>
    <defs></defs>
    <g id="Page-1" stroke="none" stroke-width="1" fill="none" fill-rule="evenodd" sketch:type="MSPage">
        <g id="Desktop-HD" sketch:type="MSArtboardGroup" transform="translate(-483.000000, -896.000000)" fill="#FFFFFF">
            <g id="Footer" sketch:type="MSLayerGroup" transform="translate(58.000000, 887.000000)">
                <g id="Logo-Github" transform="translate(425.423747, 9.050112)" sketch:type="MSShapeGroup">
                    <path d="M35.721535,0.0140761936 C36.3575848,1.30374676 36.7696581,3.44575511 36.1548099,5.01403722 C38.6691094,6.93082648 39.5329411,11.5905319 38.3195538,15.398385 C41.9031779,15.6425341 46.1712351,15.2809216 48.9269073,16.2628574 C46.3511774,15.9672574 42.8333328,15.3872211 39.5111958,15.5891417 C38.8816696,15.6274872 37.9487965,15.5677847 37.9944617,16.3584785 C41.8406602,16.6283531 45.6618517,16.9215262 48.8198117,17.801531 C45.687946,17.3447828 41.8863253,16.6492247 37.9944617,16.5521475 C36.3869409,19.3843747 33.1523287,20.7764617 28.6863894,21.0696348 C29.1664167,22.0020613 30.0856989,22.3573639 30.3102191,23.8576919 C30.6450966,26.0992044 29.7861575,29.3818698 30.6336803,30.8758879 C31.0403172,31.5918322 31.703005,31.6107623 32.1498708,32.222834 C31.0560826,33.378538 28.343901,32.0932359 28.0356615,30.8758879 C27.5067073,28.7911551 28.8413246,25.5589698 27.3871082,24.1460112 C27.4898547,26.4195592 26.7847636,29.6133989 27.495291,31.6447393 C27.7752616,32.4436846 28.5836429,32.7519047 28.3612973,33.4722175 C23.277248,33.9333342 25.401763,27.5971056 24.5710928,23.8572065 C23.8040277,23.9057451 24.1410797,24.8828271 24.1383615,25.2997737 C24.1166162,28.9518178 24.9755553,33.9610012 20.5666973,33.4722175 C20.4378564,32.7048223 21.1581692,32.4436846 21.4327035,31.7427873 C22.2367357,29.687663 21.2821174,26.6258482 21.6507001,24.1460112 C19.9681581,25.2784167 21.8273806,29.2328563 20.7846938,31.2603136 C20.1839801,32.4271815 18.2481055,32.9348952 16.7797547,32.4140761 C16.9711132,31.5452352 17.9757457,31.6855117 18.4019535,30.8758879 C18.9977745,29.7473655 18.4063025,28.1218078 18.6188627,26.4535362 C15.5043933,27.0083324 13.0884913,26.3729621 11.9060911,24.6265433 C11.3771368,23.842645 11.2461215,22.9179847 10.6068099,22.2233973 C9.97076007,21.5283246 8.95416766,21.4346451 8.65951896,20.4934817 C12.5165901,19.6644424 12.6644581,24.0377701 16.1284832,24.1460112 C17.1907407,24.1804736 17.7430711,23.8722535 18.7259583,23.6659645 C19.0010363,22.5631675 19.58979,21.7409236 20.4579708,21.1647705 C16.1475103,20.6381267 12.587806,19.4397087 10.9324456,16.5516621 C7.01394397,16.7239741 3.4281453,17.1909154 0.107095564,17.8966666 C3.12153668,16.9190993 6.83943801,16.5686506 10.8248064,16.4536141 C10.5899573,15.1935521 8.53122173,15.5401177 7.25314219,15.5886563 C4.87801266,15.6828212 1.88803499,15.9463858 0,16.2628574 C2.73664501,15.3915896 6.5768636,15.500316 10.2844359,15.4935206 C9.15041893,12.3190963 9.54346508,7.2764213 12.0164484,5.39846292 C11.3157064,3.82144386 11.5331593,1.24210274 12.4491797,0.0140761936 C15.2102882,0.124744198 16.8846757,1.19987415 18.6194064,2.22598013 C20.7705594,1.67992089 23.0326134,1.40810474 25.9801878,1.55274977 C27.2196694,1.6139084 28.5091652,2.11142903 29.4425819,2.0327965 C30.3586023,1.95610552 31.3681275,1.03824062 32.25751,0.687791941 C33.4159904,0.231043729 34.3961594,0.0567901602 35.721535,0.0140761936 L35.721535,0.0140761936 Z" id="Github__x28_alt_x29_"></path>
                </g>
            </g>
        </g>
    </g>
</svg>